<svg width="400" height="400" viewBox="0 0 400 400" fill="none" xmlns="http://www.w3.org/2000/svg">
  <!-- Outer soft gold glow -->
  <defs>
    <filter id="goldGlow" x="-50%" y="-50%" width="200%" height="200%">
      <feGaussianBlur stdDeviation="12" result="coloredBlur"/>
      <feMerge> 
        <feMergeNode in="coloredBlur"/>
        <feMergeNode in="SourceGraphic"/>
      </feMerge>
    </filter>
    
    <!-- Gold gradient for the meander pattern -->
    <linearGradient id="goldGradient" x1="0%" y1="0%" x2="100%" y2="100%">
      <stop offset="0%" style="stop-color:#fbbf24;stop-opacity:1" />
      <stop offset="50%" style="stop-color:#f59e0b;stop-opacity:1" />
      <stop offset="100%" style="stop-color:#d97706;stop-opacity:1" />
    </linearGradient>
  </defs>
  
  <!-- Outer glow circle -->
  <circle cx="200" cy="200" r="190" fill="none" stroke="rgba(251, 191, 36, 0.2)" stroke-width="30" filter="url(#goldGlow)"/>
  
  <!-- Bold Greek Key/Meander Pattern Border -->
  <g stroke="url(#goldGradient)" stroke-width="12" fill="none" stroke-linecap="square" stroke-linejoin="miter">
    
    <!-- Top meander pattern -->
    <path d="M70 50 L330 50 L330 80 L300 80 L300 110 L270 110 L270 80 L240 80 L240 110 L210 110 L210 80 L180 80 L180 110 L150 110 L150 80 L120 80 L120 110 L90 110 L90 80 L70 80 Z"/>
    
    <!-- Right meander pattern -->
    <path d="M350 70 L350 330 L320 330 L320 300 L290 300 L290 270 L320 270 L320 240 L290 240 L290 210 L320 210 L320 180 L290 180 L290 150 L320 150 L320 120 L290 120 L290 90 L320 90 L320 70 Z"/>
    
    <!-- Bottom meander pattern -->
    <path d="M330 350 L70 350 L70 320 L100 320 L100 290 L130 290 L130 320 L160 320 L160 290 L190 290 L190 320 L220 320 L220 290 L250 290 L250 320 L280 320 L280 290 L310 290 L310 320 L330 320 Z"/>
    
    <!-- Left meander pattern -->
    <path d="M50 330 L50 70 L80 70 L80 100 L110 100 L110 130 L80 130 L80 160 L110 160 L110 190 L80 190 L80 220 L110 220 L110 250 L80 250 L80 280 L110 280 L110 310 L80 310 L80 330 Z"/>
    
    <!-- Corner decorative elements -->
    <rect x="50" y="50" width="30" height="30" fill="url(#goldGradient)"/>
    <rect x="320" y="50" width="30" height="30" fill="url(#goldGradient)"/>
    <rect x="320" y="320" width="30" height="30" fill="url(#goldGradient)"/>
    <rect x="50" y="320" width="30" height="30" fill="url(#goldGradient)"/>
    
  </g>
  
  <!-- Inner circle outline -->
  <circle cx="200" cy="200" r="140" fill="none" stroke="url(#goldGradient)" stroke-width="6"/>
  
  <!-- Decorative inner dots -->
  <circle cx="200" cy="60" r="4" fill="url(#goldGradient)"/>
  <circle cx="340" cy="200" r="4" fill="url(#goldGradient)"/>
  <circle cx="200" cy="340" r="4" fill="url(#goldGradient)"/>
  <circle cx="60" cy="200" r="4" fill="url(#goldGradient)"/>
</svg>
